<svg viewBox="0 0 280 280" height="280" width="280"><g><svg viewBox="0 0 280 280" height="280" width="280"><g><svg viewBox="0 0 280 280" height="280" width="280"><g id="textblocktransform"><svg viewBox="0 0 280 280" height="280" width="280" id="textblock"><g><svg viewBox="0 0 280 280" height="280" width="280"><g transform="matrix(1,0,0,1,100.2623104853482,90.50252531694167)"><svg viewBox="0 0 79.4753790293036 98.99494936611666" height="98.99494936611666" width="79.4753790293036"><g><svg xmlns="http://www.w3.org/2000/svg" xmlns:xlink="http://www.w3.org/1999/xlink" version="1.1" x="0" y="0" viewBox="13.288874626159668 4.382999897003174 73.42212677001953 91.45498657226562" enable-background="new 0 0 100 100" xml:space="preserve" height="98.99494936611666" width="79.4753790293036" class="icon-o-0" data-fill-palette-color="accent" id="o-0"><path fill="none" d="M70.584 60.547l3.212-6.802-7.517 0.235-0.618-7.496-6.392 3.963-4.283-6.183L50.794 47.5c0.688 2.05 1.05 3.914 1.085 6.066 0.137 8.229-5.019 15.321-12.311 18.071l-1.005 5.21 7.514-0.235 0.617 7.498 6.393-3.967 4.285 6.186 3.557-6.629 6.8 3.213-0.234-7.517 7.494-0.618-3.961-6.392 6.18-4.285L70.584 60.547zM55.236 74.521c-2.455 0-4.682-0.96-6.343-2.516 0.466 0.07 0.936 0.118 1.418 0.118 5.125 0 9.282-4.157 9.282-9.284 0-2.673-1.135-5.072-2.942-6.767 4.453 0.683 7.868 4.52 7.868 9.163C64.52 70.366 60.363 74.521 55.236 74.521z"></path><path fill="none" d="M46.166 54.529c0.067-1.906-0.548-4.115-1.528-6.576-0.897-2.252-2.102-4.718-3.377-7.36-0.986-2.042-2.013-4.187-2.973-6.425-2.246-5.237-5.629-12.24-5.629-12.24s-6.068 10.241-8.671 14.66c-4.019 6.825-7.427 11.47-7.427 19.634 0 4.61 4.766 12.313 13.256 13.051 3.211 0.279 5.285-0.242 7.27-1.154C41.927 65.893 45.937 60.949 46.166 54.529zM31.61 60.603c-1.664 0-3.181-0.654-4.31-1.712 0.315 0.047 0.634 0.083 0.965 0.083 3.485 0 6.312-2.828 6.312-6.315 0-1.816-0.771-3.449-2.003-4.6 3.03 0.465 5.354 3.071 5.354 6.229C37.929 57.774 35.098 60.603 31.61 60.603z"></path><path fill="#89939e" d="M56.651 56.073c1.808 1.694 2.942 4.094 2.942 6.767 0 5.127-4.157 9.284-9.282 9.284-0.482 0-0.952-0.048-1.418-0.118 1.661 1.556 3.888 2.516 6.343 2.516 5.127 0 9.283-4.155 9.283-9.285C64.52 60.593 61.104 56.756 56.651 56.073z" data-fill-palette-color="accent"></path><path fill="#89939e" d="M77.74 69.782l8.971-6.219-9.616-5.162 4.668-9.878-10.919 0.343L69.944 37.98l-9.282 5.756-6.219-8.981-4.995 9.309c-0.609-1.403-1.33-2.954-2.172-4.761-1.144-2.457-2.57-5.517-4.254-9.365C37.058 16.326 32.879 4.383 32.879 4.383s-3.09 8.106-9.277 21.8c-7.844 17.354-10.416 21.268-10.31 27.76 0.176 10.471 9.449 19.1 19.917 18.925 0.605-0.011 1.202-0.055 1.793-0.12l-4.405 9.323 10.912-0.34 0.898 10.887 9.283-5.758 6.219 8.978 5.166-9.624 9.873 4.666L72.61 79.964l10.884-0.897L77.74 69.782zM29.817 69.273c-8.49-0.737-13.256-8.44-13.256-13.051 0-8.164 3.408-12.809 7.427-19.634 2.603-4.419 8.671-14.66 8.671-14.66s3.383 7.003 5.629 12.24c0.96 2.238 1.986 4.383 2.973 6.425 1.275 2.642 2.479 5.108 3.377 7.36 0.98 2.461 1.596 4.67 1.528 6.576-0.229 6.42-4.239 11.363-9.079 13.59C35.103 69.031 33.028 69.553 29.817 69.273zM74.988 74.778l-7.494 0.618 0.234 7.517-6.8-3.213-3.557 6.629-4.285-6.186-6.393 3.967-0.617-7.498-7.514 0.235 1.005-5.21c7.292-2.75 12.447-9.842 12.311-18.071-0.035-2.152-0.397-4.017-1.085-6.066l4.192-3.235 4.283 6.183 6.392-3.963 0.618 7.496 7.517-0.235-3.212 6.802 6.623 3.555-6.18 4.285L74.988 74.778z" data-fill-palette-color="accent"></path><path fill="#89939e" d="M32.574 48.059c1.232 1.15 2.003 2.783 2.003 4.6 0 3.487-2.826 6.315-6.312 6.315-0.331 0-0.649-0.036-0.965-0.083 1.129 1.058 2.646 1.712 4.31 1.712 3.487 0 6.318-2.828 6.318-6.314C37.929 51.13 35.604 48.523 32.574 48.059z" data-fill-palette-color="accent"></path></svg></g></svg></g><g><path d="M16.394 75.133c-0.495-0.401-0.859-0.841-1.092-1.321-0.226-0.476-0.261-0.902-0.105-1.276v0c0.384-0.921 0.837-1.513 1.358-1.778 0.519-0.259 1.211-0.208 2.077 0.153v0c0.245 0.102 0.857 0.581 1.833 1.435v0c2.221 1.914 5.018 4.163 8.393 6.746v0c0.763 0.607 1.436 1.118 2.019 1.534 0.589 0.419 1.078 0.774 1.468 1.067v0c2.515 1.813 4.374 3.256 5.577 4.327v0c0.338 0.329 0.538 0.747 0.6 1.256 0.058 0.5-0.009 0.98-0.201 1.44v0c-0.192 0.46-0.482 0.869-0.869 1.226-0.39 0.363-0.759 0.584-1.108 0.662v0c-2.002 0.152-4.686 0.246-8.052 0.282-3.369 0.043-6.265-0.046-8.688-0.264v0c3.551 3.457 7.026 6.672 10.425 9.647v0c0.206 0.18 0.434 0.376 0.684 0.588 0.241 0.216 0.488 0.438 0.739 0.665v0c0.326 0.359 0.531 0.766 0.615 1.219 0.081 0.445 0.032 0.882-0.147 1.311v0c-0.205 0.491-0.505 0.924-0.899 1.3-0.395 0.376-0.76 0.587-1.097 0.634v0c-0.741 0.101-1.817 0.088-3.227-0.038-1.41-0.127-3.37-0.333-5.882-0.618v0l-3.874-0.428c-2.541-0.232-5.097-0.582-7.669-1.049-2.572-0.468-4.085-0.797-4.539-0.987v0c-0.571-0.238-0.906-0.713-1.005-1.425-0.099-0.712-0.031-1.35 0.204-1.914v0c0.136-0.325 0.378-0.621 0.727-0.886 0.351-0.271 0.791-0.358 1.319-0.26v0c5.46 1.162 11.916 2.217 19.367 3.165v0c-1.383-1.399-3.103-3.028-5.158-4.888-2.05-1.857-4.049-3.654-5.999-5.389v0l-1.046-0.912c-0.359-0.28-0.563-0.689-0.611-1.228-0.04-0.543 0.036-1.044 0.228-1.505v0c0.248-0.595 0.599-1.022 1.053-1.279 0.46-0.255 0.886-0.362 1.279-0.32v0c0.123 0.015 1.961 0.145 5.513 0.388 3.552 0.243 7.216 0.295 10.992 0.156v0c-1.37-1.206-3.656-2.92-6.857-5.143v0l-2.435-1.73c-2.561-1.926-4.531-3.448-5.91-4.563z" fill="#636365" data-fill-palette-color="primary"></path><path d="M40.018 67.43c-0.852-0.712-1.58-1.588-2.184-2.63-0.603-1.041-1.05-2.12-1.339-3.237v0c-0.285-1.122-0.188-2.436 0.291-3.942 0.478-1.516 1.083-2.713 1.816-3.591v0c0.75-0.898 1.641-1.71 2.671-2.435 1.025-0.729 1.949-1.058 2.773-0.985v0c1.864 0.144 3.357 0.685 4.48 1.623v0c0.607 0.507 1.017 1.07 1.228 1.689 0.211 0.618 0.368 1.369 0.471 2.252v0c0.083 0.72-0.149 1.548-0.698 2.484-0.554 0.933-1.169 1.805-1.847 2.617v0c-0.431 0.515-1.008 1.103-1.732 1.763-0.715 0.659-1.444 1.272-2.187 1.839v0c0.488 0.329 1.02 0.584 1.599 0.763 0.573 0.175 1.079 0.234 1.517 0.175v0c0.799-0.095 1.457-0.339 1.974-0.729 0.517-0.391 1.096-0.969 1.735-1.735v0c0.674-0.806 1.167-1.672 1.481-2.598v0c0.27-0.728 0.556-1.273 0.858-1.635v0c0.358-0.429 0.759-0.649 1.202-0.66 0.448-0.007 0.876 0.16 1.284 0.501v0c0.561 0.469 0.748 1.179 0.56 2.131-0.183 0.956-0.542 1.925-1.078 2.908-0.539 0.988-1.024 1.74-1.454 2.255v0c-0.882 1.057-1.929 1.92-3.139 2.591-1.21 0.67-2.437 1.04-3.682 1.109v0c-1.08 0.017-2.196-0.188-3.348-0.613-1.152-0.425-2.236-1.062-3.252-1.91zM41.614 56.26c-0.414 0.495-0.733 1.069-0.957 1.722-0.22 0.657-0.293 1.285-0.221 1.882v0c0.092 0.761 0.206 1.325 0.343 1.69 0.132 0.361 0.403 0.752 0.814 1.174v0c0.657-0.413 1.727-1.508 3.21-3.284v0c0.81-0.97 1.287-1.841 1.43-2.614 0.152-0.774-0.009-1.359-0.483-1.756v0c-0.47-0.392-1.141-0.455-2.014-0.187-0.869 0.262-1.576 0.72-2.122 1.373z" fill="#636365" data-fill-palette-color="primary"></path><path d="M81.363 39.904c0.376 0.524 0.411 1.166 0.105 1.926-0.297 0.761-0.683 1.313-1.158 1.654v0c-0.908 0.651-1.71 1.055-2.409 1.212-0.698 0.157-1.496 0.088-2.396-0.208v0c-0.226 0.997-0.777 2.014-1.653 3.052-0.877 1.047-1.767 1.894-2.669 2.542v0c-1.48 1.062-2.983 1.535-4.508 1.418-1.521-0.112-2.838-0.943-3.95-2.494v0c-0.477-0.665-0.739-1.406-0.786-2.224-0.047-0.818 0.088-1.663 0.403-2.536v0c0.361-0.946 0.895-1.862 1.602-2.745 0.702-0.88 1.529-1.662 2.48-2.345v0c0.502-0.361 1.167-0.694 1.995-1.001 0.822-0.303 1.502-0.484 2.041-0.544v0l-0.413-0.575c-0.923-1.286-1.869-1.949-2.84-1.99-0.969-0.05-2.145 0.422-3.527 1.414v0c-0.405 0.291-0.745 0.661-1.02 1.112-0.274 0.451-0.557 0.997-0.848 1.641v0c-0.414 0.837-0.918 1.469-1.513 1.895v0c-0.216 0.155-0.525 0.152-0.928-0.009-0.402-0.161-0.689-0.361-0.859-0.599v0c-0.496-0.692-0.598-1.523-0.305-2.495 0.297-0.966 0.808-1.902 1.534-2.807 0.729-0.9 1.451-1.606 2.164-2.117v0c0.713-0.512 1.633-0.963 2.76-1.355 1.127-0.391 2.158-0.562 3.094-0.514v0c1.161 0.1 2.23 0.421 3.209 0.964 0.988 0.544 1.83 1.302 2.528 2.274v0c0.225 0.313 0.534 0.795 0.927 1.447v0c0.432 0.705 0.819 1.295 1.16 1.77v0c0.155 0.216 0.364 0.553 0.627 1.011v0c0.327 0.559 0.602 0.992 0.823 1.301v0c0.205 0.286 0.49 0.455 0.853 0.504 0.354 0.049 0.674-0.03 0.961-0.235v0l0.982-0.753c0.259-0.186 0.53-0.237 0.811-0.153 0.276 0.088 0.517 0.276 0.723 0.562zM69.191 47.238c1.027-0.737 1.808-1.461 2.345-2.173 0.537-0.712 1.087-1.701 1.653-2.966v0c-0.194-0.475-0.52-1.055-0.979-1.741v0c-1.753 0.317-3.06 0.784-3.919 1.4v0c-0.978 0.702-1.718 1.507-2.22 2.415-0.506 0.903-0.435 1.806 0.212 2.709v0c0.326 0.454 0.791 0.697 1.396 0.73 0.603 0.042 1.107-0.082 1.512-0.374z" fill="#636365" data-fill-palette-color="primary"></path><path d="M87.522 22.775l-2.013 0.639c-0.401 0.109-0.776 0.073-1.124-0.106-0.339-0.176-0.587-0.452-0.742-0.826v0c-0.079-0.19-0.118-0.415-0.118-0.675 0.009-0.256 0.076-0.503 0.2-0.742v0c0.203-0.501 1.075-1.072 2.617-1.71v0c-0.217-1.148-0.549-2.263-0.997-3.345v0c-0.168-0.405-0.33-0.752-0.485-1.041-0.147-0.285-0.255-0.51-0.324-0.675v0c-0.247-0.596-0.207-1.134 0.119-1.615 0.318-0.484 0.762-0.845 1.334-1.082v0c0.707-0.293 1.263-0.314 1.668-0.065 0.397 0.246 0.792 0.842 1.184 1.788v0c0.586 1.413 1.039 2.845 1.359 4.296v0c0.43-0.178 1.015-0.453 1.753-0.824v0c1.006-0.474 1.739-0.807 2.2-0.998v0c0.461-0.191 0.907-0.243 1.339-0.156 0.432 0.087 0.733 0.337 0.904 0.749v0c0.438 1.057 0.222 1.873-0.648 2.449v0c-0.9 0.661-2.395 1.457-4.485 2.388v0c0.358 1.09 0.795 2.258 1.312 3.505v0c0.807 1.948 1.589 3.495 2.346 4.644v0c0.525 0.797 1.065 1.311 1.621 1.541 0.556 0.23 1.227 0.182 2.014-0.143v0c0.461-0.191 0.883-0.51 1.266-0.957v0c0.249-0.319 0.509-0.535 0.779-0.647v0c0.381-0.158 0.707-0.153 0.979 0.016 0.28 0.172 0.504 0.461 0.672 0.866v0c0.313 0.756 0.169 1.553-0.434 2.393-0.602 0.84-1.542 1.524-2.82 2.054v0c-0.786 0.326-1.658 0.464-2.614 0.414-0.957-0.05-1.822-0.245-2.597-0.587v0c-0.116-0.053-0.393-0.305-0.832-0.756-0.445-0.449-0.876-0.951-1.293-1.505v0c-0.8-1.166-1.676-2.898-2.628-5.195v0c-0.418-1.008-0.922-2.372-1.512-4.092z" fill="#636365" data-fill-palette-color="primary"></path><path d="M113.998 1.517c0.125 0.754 0.258 1.632 0.397 2.634 0.133 1.003 0.23 1.768 0.291 2.298v0c0.16 1.49 0.362 2.97 0.606 4.439v0c0.183 1.102 0.416 2.24 0.699 3.413v0c0.682-1.455 1.491-2.57 2.427-3.346 0.942-0.783 2.151-1.298 3.627-1.543v0c1.069-0.178 2.146 0.136 3.23 0.94 1.083 0.798 1.861 1.811 2.335 3.04v0c0.273 1.114 0.544 2.481 0.813 4.102v0c0.173 1.043 0.459 2.395 0.856 4.054v0c0.165 0.627 0.43 1.189 0.796 1.688 0.367 0.505 0.81 0.715 1.328 0.629v0c0.262-0.044 0.47-0.092 0.623-0.144 0.152-0.059 0.3-0.1 0.445-0.125v0c0.407-0.068 0.706-0.013 0.897 0.165 0.191 0.177 0.318 0.453 0.38 0.827v0c0.116 0.695-0.142 1.274-0.774 1.736-0.638 0.463-1.245 0.743-1.822 0.839v0c-2.086 0.347-3.664-0.284-4.734-1.894v0c-0.595-0.906-1.083-2.139-1.464-3.7-0.373-1.556-0.735-3.39-1.086-5.502v0c-0.346-2.08-1.227-3.002-2.644-2.767v0c-0.781 0.13-1.503 0.671-2.167 1.624-0.656 0.958-1.132 2.153-1.427 3.585-0.301 1.432-0.332 2.87-0.092 4.312v0l0.8 4.509c0.106 0.636-0.062 1.146-0.505 1.53-0.441 0.39-0.878 0.621-1.31 0.693v0c-0.636 0.106-1.25 0.005-1.84-0.301-0.583-0.301-0.915-0.697-0.997-1.19v0c-0.157-2.205-0.659-5.853-1.504-10.944v0c-0.154-0.925-0.795-4.341-1.926-10.247v0l-0.801-3.972c-0.106-0.636 0.094-1.242 0.598-1.818 0.499-0.568 1.109-0.912 1.83-1.033v0c0.636-0.106 1.123-0.038 1.46 0.203 0.337 0.241 0.555 0.663 0.655 1.266z" fill="#636365" data-fill-palette-color="primary"></path><path d="M143.719 17.486c0.091-1.107 0.389-2.207 0.893-3.3 0.504-1.093 1.129-2.079 1.875-2.958v0c0.753-0.879 1.883-1.556 3.391-2.032 1.514-0.482 2.842-0.676 3.982-0.582v0c1.166 0.096 2.343 0.357 3.528 0.781 1.187 0.418 1.987 0.985 2.402 1.7v0c0.955 1.607 1.372 3.139 1.253 4.597v0c-0.065 0.789-0.29 1.447-0.674 1.977-0.384 0.529-0.907 1.089-1.57 1.682v0c-0.54 0.483-1.351 0.769-2.433 0.86-1.081 0.084-2.149 0.083-3.203-0.004v0c-0.669-0.055-1.482-0.189-2.439-0.402-0.951-0.205-1.871-0.448-2.763-0.728v0c0.012 0.588 0.11 1.17 0.297 1.746 0.187 0.569 0.43 1.016 0.73 1.341v0c0.538 0.598 1.116 0.996 1.733 1.194 0.618 0.198 1.423 0.338 2.418 0.42v0c1.047 0.086 2.039-0.009 2.976-0.285v0c0.75-0.198 1.361-0.278 1.831-0.239v0c0.557 0.046 0.967 0.247 1.232 0.602 0.264 0.362 0.374 0.808 0.33 1.339v0c-0.06 0.729-0.534 1.291-1.421 1.684-0.887 0.401-1.887 0.665-2.998 0.793-1.118 0.128-2.012 0.164-2.681 0.109v0c-1.372-0.113-2.68-0.471-3.925-1.074-1.245-0.603-2.254-1.394-3.027-2.372v0c-0.635-0.873-1.111-1.903-1.427-3.09-0.316-1.187-0.419-2.44-0.31-3.759zM153.771 12.36c-0.643-0.053-1.296 0.016-1.959 0.208-0.664 0.199-1.219 0.5-1.666 0.904v0c-0.57 0.513-0.964 0.931-1.185 1.253-0.22 0.316-0.383 0.762-0.491 1.341v0c0.716 0.299 2.227 0.544 4.534 0.735v0c1.259 0.104 2.246-0.008 2.96-0.337 0.72-0.321 1.106-0.79 1.157-1.405v0c0.05-0.61-0.285-1.195-1.006-1.755-0.715-0.559-1.496-0.874-2.344-0.944z" fill="#636365" data-fill-palette-color="primary"></path><path d="M177.351 31.235c-0.155 0.474-0.472 0.832-0.95 1.074-0.478 0.242-0.983 0.277-1.513 0.103v0c-0.834-0.273-1.396-0.632-1.685-1.076-0.286-0.451-0.288-1.109-0.004-1.974v0c0.337-1.03 0.751-2.392 1.243-4.086v0c0.398-1.409 0.752-2.588 1.062-3.536v0c0.147-0.449 0.367-1.024 0.66-1.726v0c0.276-0.651 0.469-1.144 0.579-1.479v0c0.092-0.558 0.027-1.065-0.195-1.523-0.221-0.457-0.597-0.773-1.128-0.946v0c-0.246-0.081-0.417-0.266-0.511-0.556-0.086-0.294-0.087-0.567-0.004-0.82v0c0.209-0.638 0.624-1.041 1.245-1.208 0.628-0.165 1.302-0.13 2.023 0.105v0c1.511 0.494 2.265 1.728 2.263 3.701v0c1-0.596 2.051-0.997 3.154-1.203 1.099-0.214 2.081-0.18 2.947 0.103v0c1.03 0.337 1.881 0.923 2.552 1.759 0.665 0.833 0.842 1.724 0.532 2.672v0c-0.174 0.531-0.582 0.999-1.226 1.405-0.637 0.407-1.193 0.533-1.666 0.378v0c-0.253-0.083-0.451-0.214-0.596-0.395-0.136-0.184-0.288-0.444-0.458-0.779v0c-0.187-0.369-0.358-0.649-0.513-0.84-0.155-0.191-0.358-0.327-0.611-0.41v0c-0.442-0.145-0.882-0.212-1.319-0.201-0.437 0.011-0.758 0.091-0.961 0.242v0c-0.67 0.55-1.201 1.073-1.594 1.567-0.391 0.488-0.69 1.051-0.899 1.689v0c-0.155 0.474-0.294 0.845-0.417 1.113v0l-0.82 2.377c-0.118 0.36-0.238 0.769-0.359 1.226-0.113 0.453-0.193 0.794-0.241 1.023v0c-0.164 0.779-0.361 1.519-0.59 2.221z" fill="#636365" data-fill-palette-color="primary"></path><path d="M214.149 35.03c-0.656 1.111-1.551 1.332-2.684 0.663v0c-0.384-0.226-0.649-0.503-0.797-0.829-0.151-0.321-0.273-0.748-0.367-1.282v0c-0.262-1.282-0.671-2.087-1.227-2.415v0c-0.733-0.433-1.573-0.639-2.519-0.619-0.946 0.021-1.866 0.296-2.759 0.828-0.893 0.531-1.621 1.275-2.185 2.231v0c-0.625 1.06-0.938 2.068-0.94 3.025-0.003 0.948 0.29 1.936 0.88 2.963v0c0.222 0.37 0.523 0.737 0.903 1.101 0.38 0.363 0.736 0.643 1.069 0.839v0c0.727 0.429 1.819 0.68 3.274 0.751v0c0.525 0.04 0.958 0.091 1.3 0.153 0.332 0.065 0.65 0.187 0.954 0.366v0c0.275 0.162 0.516 0.474 0.722 0.936 0.206 0.462 0.198 0.881-0.025 1.259v0c-0.446 0.756-1.178 1.185-2.196 1.287-1.009 0.1-2.103-0.021-3.284-0.363-1.178-0.332-2.234-0.774-3.168-1.325v0c-1.489-0.879-2.671-2.036-3.546-3.471-0.875-1.435-1.335-2.977-1.381-4.626-0.05-1.643 0.374-3.224 1.269-4.741v0c0.953-1.615 2.189-2.878 3.707-3.789 1.524-0.907 3.128-1.374 4.811-1.4 1.683-0.026 3.258 0.394 4.724 1.259v0c0.836 0.493 1.606 1.152 2.308 1.976 0.703 0.824 1.187 1.704 1.453 2.641 0.262 0.942 0.164 1.803-0.296 2.582z" fill="#636365" data-fill-palette-color="primary"></path><path d="M231.356 67.586c-0.455 0.458-1.082 0.599-1.882 0.423-0.8-0.166-1.408-0.456-1.823-0.869v0c-0.793-0.787-1.324-1.512-1.595-2.173-0.27-0.662-0.334-1.461-0.192-2.398v0c-1.021-0.057-2.115-0.432-3.284-1.124-1.178-0.692-2.161-1.429-2.949-2.211v0c-1.293-1.284-2.008-2.687-2.145-4.211-0.142-1.518 0.46-2.955 1.804-4.309v0c0.576-0.58 1.264-0.961 2.063-1.143 0.799-0.182 1.655-0.189 2.567-0.023v0c0.993 0.199 1.984 0.574 2.974 1.125 0.985 0.547 1.892 1.232 2.723 2.057v0c0.439 0.436 0.878 1.036 1.318 1.801 0.435 0.76 0.727 1.401 0.875 1.923v0l0.499-0.503c1.115-1.123 1.612-2.167 1.491-3.13-0.112-0.964-0.771-2.045-1.98-3.245v0c-0.354-0.351-0.776-0.625-1.265-0.821-0.49-0.196-1.076-0.384-1.759-0.565v0c-0.894-0.27-1.601-0.662-2.12-1.177v0c-0.189-0.187-0.237-0.493-0.144-0.916 0.093-0.424 0.242-0.739 0.448-0.947v0c0.6-0.604 1.403-0.842 2.41-0.714 1.002 0.133 2.01 0.482 3.022 1.047 1.008 0.57 1.824 1.164 2.447 1.783v0c0.623 0.618 1.221 1.451 1.794 2.498 0.573 1.047 0.912 2.035 1.019 2.965v0c0.093 1.161-0.046 2.269-0.418 3.324-0.372 1.064-0.98 2.021-1.824 2.87v0c-0.272 0.274-0.696 0.658-1.273 1.155v0c-0.623 0.543-1.141 1.022-1.553 1.437v0c-0.187 0.189-0.485 0.451-0.893 0.786v0c-0.497 0.416-0.879 0.758-1.147 1.027v0c-0.248 0.25-0.367 0.559-0.356 0.925 0.011 0.357 0.141 0.66 0.391 0.909v0l0.906 0.843c0.227 0.225 0.321 0.483 0.285 0.775-0.041 0.287-0.186 0.556-0.434 0.806zM222.105 56.799c0.897 0.89 1.741 1.541 2.532 1.951 0.791 0.411 1.858 0.79 3.2 1.139v0c0.436-0.27 0.954-0.688 1.554-1.254v0c-0.603-1.677-1.28-2.887-2.03-3.633v0c-0.854-0.848-1.771-1.444-2.751-1.789-0.975-0.349-1.853-0.13-2.635 0.659v0c-0.394 0.396-0.556 0.895-0.489 1.497 0.059 0.602 0.265 1.078 0.619 1.43z" fill="#636365" data-fill-palette-color="primary"></path><path d="M250.241 82.251c0.001 0.281 0.015 0.815 0.041 1.605 0.024 0.798-0.127 1.434-0.452 1.908-0.33 0.478-0.895 0.963-1.692 1.455v0c-0.9 0.556-1.853 0.784-2.859 0.687-1.01-0.103-1.954-0.45-2.834-1.041v0c-0.648-0.429-1.31-1.028-1.989-1.796-0.684-0.766-1.181-1.4-1.492-1.904v0c-0.307-0.498-0.628-1.187-0.96-2.069-0.339-0.877-0.536-1.502-0.594-1.872v0c-0.026-1.055 0.111-2.061 0.41-3.02 0.301-0.968 0.789-1.659 1.462-2.075v0c0.498-0.307 0.993-0.386 1.484-0.236 0.488 0.144 0.894 0.48 1.219 1.006v0c0.154 0.249 0.221 0.567 0.202 0.953-0.016 0.393-0.095 0.7-0.24 0.922v0c-0.474 0.676-0.674 1.44-0.601 2.294 0.076 0.844 0.322 1.603 0.738 2.276v0c0.542 0.877 1.187 1.6 1.937 2.169 0.744 0.572 1.368 0.703 1.871 0.392v0c0.221-0.136 0.364-0.303 0.43-0.5 0.072-0.201 0.12-0.445 0.145-0.735v0c0.032-0.505-0.084-1.155-0.35-1.952-0.266-0.797-0.439-1.312-0.519-1.544v0c-0.406-1.164-0.684-2.368-0.835-3.611v0c-0.126-1.267-0.041-2.39 0.253-3.369 0.298-0.973 0.956-1.774 1.975-2.403v0c0.673-0.416 1.532-0.602 2.574-0.558 1.049 0.04 1.912 0.281 2.591 0.722v0c0.455 0.344 1.111 0.983 1.968 1.915 0.851 0.936 1.394 1.593 1.628 1.972v0c0.353 0.572 0.681 1.229 0.983 1.972 0.303 0.743 0.438 1.367 0.406 1.872v0c0.02 0.918-0.06 1.725-0.24 2.422-0.174 0.693-0.535 1.21-1.084 1.549v0c-0.272 0.168-0.601 0.285-0.989 0.353-0.394 0.071-0.682 0.042-0.864-0.088v0c-0.406-0.265-0.763-0.647-1.07-1.145v0c-0.14-0.226-0.189-0.446-0.148-0.659 0.037-0.218 0.126-0.523 0.267-0.915v0c0.253-0.539 0.34-0.956 0.259-1.25v0c-0.112-0.345-0.287-0.839-0.527-1.48-0.243-0.647-0.426-1.07-0.548-1.268v0c-0.353-0.572-0.879-1.063-1.579-1.475-0.706-0.408-1.27-0.482-1.695-0.22v0c-0.221 0.136-0.336 0.336-0.344 0.6-0.009 0.264 0 0.532 0.027 0.804 0.031 0.278 0.058 0.461 0.08 0.548v0c0.076 0.68 0.222 1.391 0.438 2.133 0.216 0.742 0.346 1.205 0.389 1.389v0c0.509 1.546 0.752 2.635 0.728 3.267z" fill="#636365" data-fill-palette-color="primary"></path><path d="M262.604 97.344l-0.516-2.048c-0.084-0.407-0.025-0.779 0.176-1.115 0.197-0.328 0.487-0.558 0.87-0.69v0c0.195-0.067 0.422-0.092 0.681-0.076 0.255 0.025 0.497 0.107 0.728 0.245v0c0.488 0.233 1.004 1.138 1.547 2.717v0c1.159-0.146 2.293-0.409 3.399-0.791v0c0.415-0.143 0.771-0.283 1.068-0.42 0.293-0.129 0.525-0.223 0.695-0.281v0c0.61-0.21 1.145-0.137 1.604 0.218 0.464 0.347 0.797 0.812 0.998 1.397v0c0.249 0.723 0.236 1.28-0.037 1.669-0.27 0.381-0.889 0.738-1.857 1.072v0c-1.446 0.498-2.903 0.862-4.371 1.093v0c0.151 0.44 0.39 1.04 0.714 1.8v0c0.412 1.033 0.699 1.785 0.861 2.257v0c0.162 0.472 0.187 0.92 0.073 1.346-0.114 0.426-0.381 0.711-0.802 0.857v0c-1.082 0.372-1.883 0.107-2.405-0.797v0c-0.604-0.938-1.307-2.479-2.108-4.623v0c-1.11 0.291-2.303 0.655-3.58 1.095v0c-1.993 0.686-3.586 1.371-4.778 2.056v0c-0.828 0.475-1.374 0.983-1.638 1.524-0.264 0.541-0.257 1.214 0.02 2.018v0c0.162 0.472 0.455 0.912 0.877 1.323v0c0.303 0.268 0.503 0.541 0.598 0.817v0c0.134 0.39 0.109 0.715-0.076 0.976-0.189 0.269-0.491 0.475-0.905 0.618v0c-0.773 0.266-1.561 0.073-2.362-0.58-0.801-0.653-1.427-1.633-1.878-2.941v0c-0.277-0.805-0.361-1.683-0.253-2.634 0.108-0.952 0.357-1.804 0.745-2.557v0c0.06-0.112 0.329-0.373 0.807-0.783 0.475-0.417 1.003-0.816 1.581-1.199v0c1.213-0.727 2.995-1.495 5.347-2.304v0c1.031-0.355 2.424-0.774 4.177-1.259z" fill="#636365" data-fill-palette-color="primary"></path><path d="M46.861 200.497c0.672-0.085 1.278-0.04 1.815 0.135 0.534 0.184 0.886 0.474 1.056 0.872v0c0.418 0.978 0.533 1.761 0.343 2.349-0.19 0.588-0.744 1.077-1.661 1.469v0c-0.257 0.11-1.072 0.224-2.447 0.341v0c-3.103 0.271-6.886 0.735-11.349 1.392v0c-1.027 0.135-1.92 0.271-2.679 0.408-0.753 0.134-1.383 0.241-1.892 0.321v0c-3.246 0.578-5.725 0.929-7.437 1.053v0c-0.501 0.012-0.967-0.147-1.397-0.476-0.428-0.323-0.746-0.73-0.955-1.219v0c-0.207-0.483-0.305-1.009-0.295-1.577 0.019-0.565 0.126-1.008 0.321-1.331v0c1.37-1.634 3.289-3.75 5.759-6.346 2.461-2.6 4.67-4.742 6.627-6.425v0c-5.252 0.148-10.274 0.415-15.064 0.8v0c-0.293 0.024-0.611 0.051-0.952 0.082-0.344 0.024-0.7 0.046-1.068 0.065v0c-0.512-0.013-0.97-0.153-1.373-0.421-0.404-0.268-0.704-0.632-0.901-1.091v0c-0.222-0.52-0.33-1.067-0.322-1.641 0.011-0.583 0.12-1.021 0.329-1.312v0c0.476-0.645 1.283-1.456 2.42-2.435 1.143-0.981 2.757-2.322 4.843-4.023v0l3.187-2.643c2.062-1.757 4.224-3.441 6.487-5.052 2.259-1.617 3.631-2.529 4.114-2.736v0c0.605-0.259 1.215-0.161 1.828 0.293 0.617 0.445 1.055 0.97 1.314 1.575v0c0.146 0.342 0.192 0.746 0.138 1.211-0.055 0.465-0.317 0.866-0.787 1.204v0c-4.928 3.293-10.516 7.426-16.766 12.398v0c2.098-0.015 4.616-0.115 7.553-0.3 2.934-0.191 5.784-0.386 8.548-0.585v0l1.469-0.118c0.484-0.069 0.946 0.08 1.385 0.449 0.449 0.372 0.776 0.8 0.983 1.283v0c0.269 0.63 0.334 1.213 0.195 1.75-0.145 0.54-0.381 0.944-0.707 1.214v0c-0.103 0.08-1.563 1.384-4.381 3.912-2.811 2.526-5.565 5.28-8.26 8.262v0c1.937-0.156 4.94-0.626 9.009-1.411v0l3.108-0.57c3.368-0.529 5.989-0.904 7.862-1.126z" fill="#636365" data-fill-palette-color="primary"></path><path d="M39.659 220.491c0.9-0.769 1.948-1.375 3.143-1.819 1.196-0.453 2.404-0.728 3.623-0.826v0c1.225-0.102 2.588 0.229 4.09 0.994 1.496 0.769 2.639 1.616 3.429 2.541v0c0.812 0.951 1.506 2.029 2.081 3.234 0.584 1.206 0.765 2.232 0.543 3.078v0c-0.487 1.929-1.321 3.398-2.504 4.409v0c-0.642 0.549-1.305 0.879-1.989 0.99-0.683 0.111-1.497 0.142-2.441 0.091v0c-0.77-0.042-1.598-0.432-2.483-1.172-0.88-0.744-1.685-1.543-2.415-2.397v0c-0.466-0.546-0.979-1.254-1.538-2.123-0.558-0.879-1.07-1.754-1.534-2.626v0c-0.431 0.447-0.79 0.959-1.076 1.536-0.29 0.572-0.442 1.09-0.455 1.556v0c-0.044 0.86 0.089 1.594 0.4 2.204 0.32 0.61 0.823 1.317 1.51 2.121v0c0.73 0.855 1.55 1.527 2.459 2.019v0c0.722 0.415 1.245 0.813 1.569 1.191v0c0.384 0.45 0.539 0.908 0.465 1.374-0.07 0.471-0.317 0.888-0.742 1.251v0c-0.592 0.505-1.371 0.576-2.338 0.212-0.967-0.364-1.916-0.912-2.849-1.646-0.937-0.739-1.639-1.381-2.105-1.927v0c-0.95-1.112-1.671-2.36-2.161-3.743-0.485-1.387-0.655-2.738-0.509-4.052v0c0.174-1.137 0.591-2.272 1.251-3.404 0.65-1.133 1.509-2.155 2.576-3.066zM51.074 224.148c-0.449-0.526-0.997-0.963-1.645-1.311-0.642-0.352-1.283-0.54-1.923-0.562v0c-0.817-0.045-1.427-0.027-1.829 0.055-0.407 0.076-0.865 0.293-1.374 0.649v0c0.313 0.756 1.269 2.069 2.867 3.94v0c0.872 1.021 1.701 1.678 2.484 1.971 0.784 0.293 1.423 0.227 1.918-0.196v0c0.501-0.428 0.69-1.123 0.568-2.085-0.127-0.958-0.483-1.778-1.066-2.461z" fill="#636365" data-fill-palette-color="primary"></path><path d="M73.816 260.642c-0.394 0.561-1.023 0.821-1.889 0.783-0.87-0.034-1.561-0.23-2.073-0.59v0c-0.969-0.68-1.656-1.345-2.061-1.995-0.403-0.641-0.614-1.463-0.632-2.467v0c-1.077 0.122-2.292-0.073-3.648-0.585-1.351-0.518-2.511-1.116-3.479-1.797v0c-1.584-1.112-2.585-2.452-3.003-4.021-0.418-1.569-0.046-3.181 1.115-4.836v0c0.5-0.713 1.153-1.238 1.958-1.574 0.801-0.331 1.694-0.493 2.679-0.484v0c1.08 0.035 2.185 0.25 3.314 0.644 1.138 0.393 2.216 0.946 3.234 1.66v0c0.539 0.378 1.103 0.929 1.693 1.652 0.599 0.721 1.02 1.342 1.264 1.862v0l0.43-0.612c0.967-1.377 1.304-2.558 1.012-3.543-0.293-0.994-1.181-2.011-2.661-3.05v0c-0.435-0.306-0.926-0.516-1.471-0.63-0.545-0.115-1.194-0.209-1.947-0.282v0c-0.984-0.114-1.795-0.395-2.432-0.842v0c-0.229-0.16-0.334-0.474-0.315-0.94 0.024-0.463 0.124-0.819 0.3-1.069v0c0.52-0.74 1.317-1.135 2.392-1.186 1.077-0.041 2.193 0.146 3.349 0.56 1.165 0.412 2.129 0.885 2.891 1.419v0c0.767 0.539 1.543 1.303 2.328 2.292 0.79 0.993 1.324 1.969 1.601 2.928v0c0.301 1.203 0.354 2.389 0.158 3.56-0.194 1.18-0.658 2.292-1.392 3.337v0c-0.233 0.332-0.61 0.811-1.13 1.437v0c-0.549 0.679-1.004 1.274-1.363 1.786v0c-0.16 0.229-0.428 0.557-0.801 0.985v0c-0.448 0.522-0.788 0.95-1.022 1.282v0c-0.214 0.305-0.283 0.646-0.207 1.024 0.081 0.382 0.274 0.68 0.579 0.894v0l1.098 0.71c0.283 0.199 0.43 0.452 0.441 0.76 0.007 0.314-0.096 0.623-0.31 0.928zM62.195 250.999c1.094 0.768 2.091 1.297 2.992 1.588 0.901 0.291 2.09 0.496 3.566 0.614v0c0.405-0.357 0.874-0.886 1.405-1.585v0c-0.942-1.644-1.873-2.789-2.792-3.435v0c-1.045-0.734-2.11-1.196-3.194-1.388-1.084-0.192-1.966 0.196-2.646 1.165v0c-0.34 0.484-0.422 1.036-0.247 1.654 0.175 0.619 0.481 1.081 0.916 1.387z" fill="#636365" data-fill-palette-color="primary"></path><path d="M92.325 254.143l-2.01-1.018c-0.378-0.218-0.632-0.521-0.761-0.911-0.129-0.39-0.113-0.785 0.049-1.185v0c0.082-0.203 0.223-0.401 0.423-0.593 0.191-0.188 0.423-0.327 0.696-0.418v0c0.528-0.224 1.615-0.003 3.261 0.664v0c0.685-1.036 1.26-2.13 1.727-3.283v0c0.177-0.438 0.317-0.819 0.419-1.143 0.099-0.333 0.183-0.586 0.253-0.759v0c0.257-0.635 0.688-1.017 1.292-1.145 0.608-0.12 1.214-0.058 1.819 0.187v0c0.752 0.304 1.188 0.699 1.306 1.185 0.125 0.488-0.017 1.238-0.425 2.249v0c-0.606 1.498-1.332 2.919-2.177 4.263v0c0.462 0.187 1.11 0.413 1.942 0.678v0c1.12 0.389 1.926 0.683 2.419 0.882v0c0.487 0.197 0.862 0.492 1.127 0.886 0.264 0.394 0.309 0.806 0.134 1.238v0c-0.456 1.128-1.234 1.588-2.334 1.38v0c-1.171-0.173-2.893-0.686-5.166-1.541v0c-0.549 1.091-1.093 2.302-1.631 3.633v0c-0.841 2.077-1.398 3.836-1.672 5.275v0c-0.202 0.995-0.176 1.783 0.076 2.366 0.25 0.589 0.794 1.053 1.632 1.392v0c0.487 0.197 1.045 0.272 1.674 0.225v0c0.428-0.064 0.786-0.037 1.075 0.08v0c0.401 0.162 0.643 0.414 0.727 0.757 0.08 0.334 0.033 0.716-0.141 1.148v0c-0.327 0.808-1.03 1.305-2.111 1.492-1.086 0.185-2.307 0.003-3.663-0.546v0c-0.838-0.339-1.601-0.884-2.287-1.636-0.695-0.747-1.205-1.542-1.532-2.384v0c-0.051-0.121-0.077-0.519-0.076-1.194 0.004-0.666 0.051-1.367 0.141-2.105v0c0.265-1.471 0.895-3.436 1.891-5.896v0c0.432-1.066 1.066-2.474 1.903-4.223z" fill="#636365" data-fill-palette-color="primary"></path><path d="M120.559 248.334c-0.128 0.801-0.29 1.728-0.484 2.781-0.203 1.059-0.365 1.861-0.486 2.407v0c-0.343 1.555-0.64 3.117-0.891 4.687v0c-0.187 1.169-0.336 2.394-0.446 3.676v0c1.18-1.232 2.374-2.085 3.581-2.559 1.213-0.466 2.604-0.574 4.173-0.323v0c1.143 0.183 2.126 0.858 2.95 2.027 0.816 1.174 1.257 2.46 1.323 3.858v0c-0.1 1.216-0.288 2.688-0.565 4.415v0c-0.176 1.103-0.348 2.557-0.515 4.363v0c-0.042 0.687 0.034 1.346 0.23 1.976 0.202 0.632 0.579 0.992 1.13 1.08v0c0.276 0.044 0.501 0.067 0.676 0.067 0.176-0.006 0.34 0.004 0.491 0.028v0c0.433 0.069 0.718 0.226 0.854 0.47 0.136 0.244 0.173 0.563 0.11 0.957v0c-0.119 0.742-0.578 1.238-1.379 1.487-0.794 0.25-1.5 0.326-2.117 0.227v0c-2.22-0.355-3.596-1.521-4.129-3.498v0c-0.293-1.118-0.367-2.527-0.223-4.228 0.143-1.694 0.394-3.665 0.753-5.911v0c0.355-2.22-0.223-3.45-1.734-3.691v0c-0.827-0.132-1.735 0.174-2.723 0.919-0.988 0.745-1.872 1.789-2.652 3.131-0.786 1.336-1.302 2.775-1.549 4.319v0l-0.717 4.805c-0.108 0.676-0.451 1.137-1.029 1.381-0.57 0.239-1.085 0.322-1.545 0.248v0c-0.683-0.109-1.267-0.418-1.751-0.926-0.485-0.502-0.687-1.012-0.604-1.531v0c0.58-2.278 1.302-6.126 2.168-11.543v0c0.157-0.985 0.665-4.645 1.523-10.98v0l0.54-4.268c0.108-0.676 0.511-1.218 1.209-1.625 0.692-0.408 1.425-0.55 2.2-0.426v0c0.676 0.108 1.145 0.338 1.405 0.689 0.253 0.357 0.327 0.86 0.223 1.511z" fill="#636365" data-fill-palette-color="primary"></path><path d="M144.068 270.079c-0.103-1.179 0.011-2.384 0.344-3.615 0.325-1.237 0.803-2.38 1.431-3.43v0c0.628-1.056 1.689-1.974 3.183-2.752 1.494-0.772 2.848-1.211 4.06-1.318v0c1.245-0.109 2.526-0.048 3.842 0.184 1.321 0.225 2.262 0.673 2.821 1.345v0c1.288 1.516 2 3.049 2.136 4.599v0c0.074 0.841-0.042 1.572-0.348 2.193-0.306 0.621-0.754 1.301-1.343 2.041v0c-0.481 0.603-1.28 1.05-2.396 1.341-1.117 0.285-2.235 0.476-3.354 0.575v0c-0.715 0.063-1.589 0.069-2.622 0.02-1.04-0.056-2.049-0.147-3.028-0.275v0c0.114 0.611 0.322 1.2 0.625 1.767 0.297 0.568 0.631 0.993 1.003 1.274v0c0.674 0.535 1.35 0.853 2.027 0.954 0.682 0.094 1.55 0.094 2.603 0.002v0c1.12-0.098 2.143-0.375 3.072-0.83v0c0.757-0.347 1.384-0.542 1.881-0.586v0c0.59-0.052 1.052 0.088 1.388 0.419 0.343 0.33 0.539 0.774 0.588 1.33v0c0.068 0.775-0.327 1.451-1.184 2.027-0.857 0.576-1.856 1.031-2.995 1.364-1.146 0.334-2.076 0.533-2.791 0.595v0c-1.457 0.128-2.891-0.01-4.302-0.413-1.411-0.41-2.609-1.056-3.595-1.938v0c-0.825-0.802-1.506-1.8-2.045-2.995-0.545-1.187-0.878-2.48-1.001-3.878zM153.673 262.908c-0.689 0.06-1.363 0.253-2.023 0.578-0.66 0.318-1.184 0.731-1.573 1.24v0c-0.511 0.639-0.851 1.146-1.018 1.521-0.174 0.376-0.264 0.874-0.27 1.496v0c0.797 0.184 2.421 0.168 4.873-0.047v0c1.338-0.117 2.354-0.41 3.047-0.878 0.693-0.468 1.011-1.027 0.955-1.676v0c-0.058-0.656-0.514-1.213-1.369-1.673-0.854-0.452-1.728-0.639-2.622-0.561z" fill="#636365" data-fill-palette-color="primary"></path><path d="M183.079 270.947c0.165 0.499 0.119 1.004-0.138 1.517-0.258 0.513-0.667 0.862-1.23 1.048v0c-0.884 0.293-1.591 0.337-2.12 0.134-0.53-0.203-0.946-0.762-1.249-1.677v0c-0.362-1.092-0.865-2.519-1.511-4.281v0c-0.546-1.458-0.985-2.69-1.317-3.693v0c-0.157-0.473-0.334-1.105-0.533-1.894v0c-0.179-0.732-0.328-1.275-0.444-1.628v0c-0.274-0.533-0.649-0.923-1.124-1.173-0.477-0.255-0.996-0.29-1.558-0.104v0c-0.265 0.088-0.531 0.036-0.798-0.156-0.26-0.194-0.434-0.424-0.522-0.689v0c-0.226-0.682-0.122-1.29 0.31-1.826 0.432-0.535 1.033-0.931 1.803-1.185v0c1.597-0.529 3.019 0.051 4.265 1.74v0c0.476-1.145 1.118-2.156 1.927-3.034 0.811-0.871 1.675-1.458 2.59-1.761v0c1.099-0.364 2.196-0.401 3.294-0.113 1.093 0.297 1.807 0.95 2.141 1.96v0c0.186 0.562 0.133 1.217-0.159 1.965-0.29 0.754-0.687 1.215-1.192 1.383v0c-0.265 0.088-0.518 0.098-0.757 0.03-0.233-0.07-0.526-0.194-0.879-0.371v0c-0.395-0.199-0.719-0.33-0.971-0.393-0.252-0.064-0.511-0.052-0.776 0.036v0c-0.473 0.157-0.891 0.376-1.254 0.656-0.367 0.289-0.589 0.559-0.667 0.81v0c-0.227 0.902-0.357 1.684-0.39 2.346-0.025 0.667 0.076 1.341 0.302 2.023v0c0.165 0.499 0.284 0.901 0.357 1.205v0l0.79 2.544c0.127 0.385 0.285 0.809 0.473 1.273 0.182 0.465 0.328 0.812 0.44 1.041v0c0.352 0.766 0.651 1.522 0.897 2.267z" fill="#636365" data-fill-palette-color="primary"></path><path d="M209.699 242.497c0.697 1.179 0.441 2.126-0.767 2.84v0c-0.401 0.237-0.792 0.34-1.172 0.31-0.381-0.03-0.841-0.136-1.382-0.319v0c-1.332-0.41-2.292-0.442-2.882-0.093v0c-0.779 0.46-1.402 1.137-1.87 2.031-0.466 0.885-0.681 1.881-0.645 2.988 0.032 1.101 0.35 2.161 0.952 3.18v0c0.666 1.128 1.444 1.935 2.334 2.421 0.884 0.49 1.954 0.726 3.212 0.71v0c0.461-0.017 0.958-0.11 1.492-0.279 0.53-0.174 0.97-0.365 1.319-0.571v0c0.779-0.46 1.577-1.345 2.395-2.654v0c0.301-0.471 0.565-0.848 0.792-1.129 0.237-0.279 0.516-0.513 0.837-0.703v0c0.298-0.176 0.71-0.242 1.238-0.198 0.537 0.046 0.925 0.272 1.165 0.678v0c0.474 0.802 0.498 1.699 0.073 2.692-0.425 0.993-1.097 1.954-2.016 2.882-0.922 0.923-1.878 1.677-2.869 2.263v0c-1.586 0.937-3.272 1.443-5.059 1.517-1.777 0.077-3.447-0.285-5.009-1.084-1.556-0.803-2.809-2.009-3.759-3.618v0c-1.015-1.718-1.555-3.515-1.621-5.392-0.06-1.88 0.33-3.613 1.169-5.198 0.84-1.585 2.036-2.836 3.587-3.753v0c0.887-0.524 1.897-0.901 3.029-1.129 1.128-0.234 2.199-0.233 3.211 0.003 1.003 0.234 1.752 0.769 2.246 1.605z" fill="#636365" data-fill-palette-color="primary"></path><path d="M243.202 229.667c0.482 0.486 0.628 1.152 0.436 1.997-0.187 0.85-0.502 1.496-0.946 1.936v0c-0.84 0.834-1.616 1.393-2.327 1.677-0.702 0.284-1.548 0.347-2.54 0.187v0c-0.07 1.081-0.477 2.244-1.22 3.487-0.748 1.238-1.542 2.275-2.382 3.108v0c-1.374 1.363-2.87 2.112-4.488 2.247-1.618 0.135-3.139-0.516-4.563-1.951v0c-0.614-0.618-1.015-1.354-1.205-2.206-0.185-0.847-0.186-1.755-0.003-2.722v0c0.225-1.057 0.631-2.107 1.219-3.149 0.587-1.051 1.322-2.014 2.205-2.89v0c0.467-0.464 1.109-0.922 1.924-1.375 0.815-0.462 1.501-0.768 2.056-0.916v0l-0.527-0.531c-1.185-1.194-2.288-1.735-3.308-1.621-1.03 0.113-2.187 0.807-3.472 2.081v0c-0.378 0.375-0.671 0.82-0.88 1.337-0.209 0.516-0.416 1.139-0.621 1.866v0c-0.286 0.949-0.705 1.697-1.258 2.246v0c-0.198 0.197-0.525 0.245-0.981 0.144-0.451-0.105-0.784-0.266-0.999-0.484v0c-0.637-0.642-0.885-1.497-0.745-2.563 0.15-1.067 0.53-2.133 1.142-3.198 0.611-1.074 1.247-1.939 1.907-2.595v0c0.666-0.66 1.555-1.289 2.667-1.887 1.117-0.602 2.172-0.955 3.164-1.06v0c1.237-0.084 2.414 0.073 3.532 0.473 1.127 0.399 2.14 1.052 3.04 1.959v0c0.286 0.288 0.691 0.743 1.214 1.366v0c0.571 0.661 1.077 1.213 1.517 1.657v0c0.197 0.198 0.473 0.519 0.829 0.962v0c0.435 0.533 0.796 0.944 1.081 1.232v0c0.262 0.264 0.586 0.393 0.972 0.385 0.39-0.013 0.718-0.15 0.982-0.413v0l0.893-0.955c0.245-0.244 0.521-0.344 0.826-0.3 0.31 0.048 0.596 0.205 0.859 0.469zM231.659 239.404c0.949-0.941 1.646-1.83 2.091-2.665 0.445-0.835 0.857-1.969 1.234-3.402v0c-0.28-0.462-0.718-1.016-1.312-1.663v0c-1.785 0.637-3.076 1.351-3.874 2.143v0c-0.906 0.899-1.55 1.865-1.93 2.899-0.38 1.033-0.154 1.97 0.68 2.81v0c0.417 0.42 0.945 0.599 1.584 0.535 0.64-0.063 1.149-0.282 1.527-0.657z" fill="#636365" data-fill-palette-color="primary"></path><path d="M250.396 203.978c0.26-0.128 0.76-0.393 1.502-0.794 0.742-0.401 1.419-0.559 2.033-0.476 0.604 0.085 1.33 0.391 2.178 0.917v0c0.955 0.592 1.625 1.392 2.011 2.397 0.385 1.006 0.504 2.07 0.356 3.191v0c-0.102 0.821-0.357 1.735-0.763 2.744-0.41 1.014-0.779 1.786-1.108 2.317v0c-0.326 0.526-0.828 1.157-1.505 1.895-0.677 0.738-1.182 1.223-1.514 1.456v0c-0.983 0.525-2.005 0.873-3.066 1.044-1.058 0.166-1.945 0.026-2.663-0.419v0c-0.526-0.326-0.834-0.756-0.925-1.29-0.091-0.534 0.035-1.078 0.379-1.632v0c0.165-0.266 0.437-0.484 0.817-0.655 0.377-0.166 0.706-0.235 0.987-0.209v0c0.868 0.14 1.689-0.029 2.461-0.504 0.767-0.479 1.373-1.077 1.818-1.796v0c0.575-0.927 0.958-1.879 1.149-2.855 0.189-0.986 0.018-1.644-0.513-1.974v0c-0.237-0.147-0.466-0.207-0.687-0.179-0.221 0.028-0.477 0.1-0.768 0.216v0c-0.493 0.203-1.056 0.624-1.688 1.265-0.634 0.632-1.042 1.036-1.223 1.214v0c-0.91 0.938-1.927 1.775-3.049 2.51v0c-1.145 0.722-2.251 1.174-3.318 1.358-1.062 0.186-2.139-0.059-3.23-0.736v0c-0.712-0.442-1.293-1.17-1.743-2.185-0.456-1.018-0.637-1.956-0.544-2.814v0c0.108-0.59 0.408-1.516 0.9-2.776 0.483-1.258 0.847-2.084 1.093-2.48v0c0.379-0.61 0.848-1.235 1.408-1.873 0.57-0.641 1.1-1.067 1.592-1.278v0c0.866-0.449 1.67-0.756 2.414-0.921 0.74-0.159 1.404-0.056 1.992 0.309v0c0.288 0.179 0.559 0.437 0.811 0.773 0.247 0.333 0.352 0.618 0.316 0.853v0c-0.062 0.517-0.257 1.038-0.582 1.564v0c-0.147 0.237-0.331 0.389-0.553 0.456-0.227 0.063-0.558 0.123-0.993 0.182v0c-0.634 0.013-1.074 0.128-1.318 0.344v0c-0.275 0.267-0.662 0.669-1.159 1.207-0.494 0.531-0.807 0.904-0.94 1.118v0c-0.379 0.61-0.597 1.347-0.656 2.211-0.055 0.858 0.141 1.426 0.587 1.703v0c0.237 0.147 0.485 0.164 0.744 0.05 0.253-0.117 0.503-0.255 0.75-0.415 0.248-0.159 0.407-0.272 0.479-0.337v0c0.609-0.389 1.217-0.865 1.825-1.427 0.604-0.557 0.98-0.898 1.129-1.025v0c1.232-1.216 2.158-1.964 2.777-2.244z" fill="#636365" data-fill-palette-color="primary"></path><path d="M252.373 186.238l-0.92 2.056c-0.199 0.388-0.49 0.656-0.873 0.805-0.383 0.148-0.778 0.151-1.186 0.008v0c-0.207-0.072-0.411-0.204-0.613-0.394-0.197-0.182-0.347-0.407-0.45-0.675v0c-0.249-0.517-0.081-1.613 0.505-3.29v0c-1.068-0.634-2.188-1.156-3.363-1.566v0c-0.446-0.156-0.833-0.277-1.162-0.364-0.337-0.083-0.594-0.155-0.77-0.216v0c-0.647-0.226-1.049-0.638-1.206-1.235-0.149-0.602-0.116-1.21 0.099-1.825v0c0.268-0.766 0.641-1.22 1.121-1.363 0.482-0.149 1.237-0.043 2.267 0.317v0c1.526 0.533 2.98 1.189 4.363 1.969v0c0.165-0.471 0.359-1.128 0.583-1.973v0c0.334-1.137 0.589-1.957 0.765-2.459v0c0.173-0.496 0.45-0.885 0.83-1.168 0.381-0.283 0.791-0.347 1.23-0.194v0c1.149 0.401 1.646 1.156 1.491 2.265v0c-0.116 1.178-0.546 2.923-1.29 5.234v0c1.116 0.496 2.352 0.98 3.708 1.454v0c2.116 0.739 3.899 1.211 5.349 1.415v0c1.003 0.153 1.79 0.09 2.36-0.19 0.576-0.278 1.013-0.843 1.311-1.697v0c0.173-0.496 0.221-1.057 0.144-1.683v0c-0.084-0.424-0.075-0.783 0.029-1.078v0c0.143-0.408 0.383-0.662 0.72-0.763 0.329-0.096 0.714-0.068 1.154 0.086v0c0.822 0.287 1.353 0.966 1.592 2.036 0.237 1.076 0.114 2.305-0.369 3.686v0c-0.298 0.854-0.806 1.641-1.523 2.363-0.713 0.73-1.482 1.278-2.308 1.645v0c-0.119 0.057-0.515 0.102-1.188 0.134-0.665 0.028-1.368 0.015-2.11-0.04v0c-1.482-0.194-3.475-0.728-5.98-1.604v0c-1.086-0.38-2.523-0.945-4.31-1.696z" fill="#636365" data-fill-palette-color="primary"></path><path d="M2.97 143.164c0-6.263 5.077-11.34 11.34-11.34 6.263 0 11.34 5.077 11.34 11.34 0 6.263-5.077 11.34-11.34 11.34-6.263 0-11.34-5.077-11.34-11.34z" fill="#636365" data-fill-palette-color="primary"></path><path d="M254.35 143.164c0-6.263 5.077-11.34 11.34-11.34 6.263 0 11.34 5.077 11.34 11.34 0 6.263-5.077 11.34-11.34 11.34-6.263 0-11.34-5.077-11.34-11.34z" fill="#636365" data-fill-palette-color="primary"></path></g></svg></g></svg></g></svg></g></svg></g><defs></defs></svg>